<svg width="96" height="36" viewBox="0 0 96 36" fill="none" xmlns="http://www.w3.org/2000/svg">
<path d="M14.2188 16.967C14.2208 18.8107 15.3246 20.4748 17.0225 21.1936C16.6963 22.2548 16.2039 23.2576 15.5638 24.1648C14.7047 25.4516 13.8044 26.7081 12.3734 26.7314C10.9845 26.7636 10.5174 25.9134 8.92354 25.9134C7.31448 25.9134 6.81691 26.7081 5.48438 26.7636C4.12232 26.8146 3.08153 25.3917 2.1902 24.1182C0.410221 21.5185 -0.976003 16.7889 0.882728 13.5716C1.75535 12.0031 3.38711 11.0077 5.18101 10.9495C6.54396 10.9218 7.80937 11.8704 8.64791 11.8704C9.46944 11.8704 11.0346 10.7357 12.6482 10.9039C14.1821 10.951 15.6036 11.7197 16.4829 12.9774C15.0946 13.8317 14.2403 15.3371 14.2188 16.967ZM11.5949 9.19372C10.8381 10.1351 9.69105 10.6771 8.48324 10.6641C8.40693 9.48392 8.80257 8.32175 9.58309 7.43339C10.374 6.53355 11.4746 5.96451 12.6661 5.83955C12.7592 7.0544 12.3749 8.25772 11.5949 9.19372ZM31.0673 23.5392H26.5185L25.4258 26.7654H23.4999L27.8089 14.8326H29.81L34.1181 26.7654H32.1591L31.0673 23.5392ZM26.9901 22.051H30.5957L28.8184 16.8157H28.7692L26.9901 22.051ZM43.4225 22.4143C43.4225 25.1169 41.9754 26.8549 39.7919 26.8549C38.6631 26.9137 37.6 26.3225 37.0543 25.3326H37.0131V29.6416H35.2278V18.0641H36.9568V19.5112H36.9899C37.5595 18.527 38.624 17.9357 39.7605 17.9719C41.9674 17.9737 43.4225 19.7188 43.4225 22.4143ZM41.5871 22.4143C41.5871 20.6513 40.6769 19.4942 39.2871 19.4942C37.9233 19.4942 37.0051 20.6755 37.0051 22.4143C37.0051 24.1674 37.9233 25.3407 39.2871 25.3407C40.6769 25.3407 41.5871 24.1925 41.5871 22.4143ZM52.9981 22.4143C52.9981 25.1169 51.551 26.8549 49.3674 26.8549C48.2387 26.9137 47.1756 26.3225 46.6299 25.3326H46.5887V29.6416H44.8025V18.0641H46.5315V19.5112H46.5646C47.1342 18.527 48.1987 17.9357 49.3352 17.9719C51.5421 17.9737 52.9981 19.7188 52.9981 22.4143ZM51.1627 22.4143C51.1627 20.6513 50.2525 19.4942 48.8636 19.4942C47.4998 19.4942 46.5816 20.6755 46.5816 22.4143C46.5816 24.1674 47.4998 25.3407 48.8636 25.3407C50.2525 25.3407 51.1627 24.1925 51.1627 22.4143ZM59.327 23.439C59.4585 24.6221 60.6085 25.3988 62.18 25.3988C63.6852 25.3988 64.768 24.6221 64.768 23.5544C64.768 22.6282 64.1148 22.0733 62.5683 21.693L61.0219 21.3216C58.8312 20.7918 57.8137 19.7671 57.8137 18.1053C57.8137 16.0461 59.608 14.6321 62.1558 14.6321C64.6777 14.6321 66.4057 16.0461 66.4639 18.1044H64.6607C64.5533 16.9142 63.568 16.1955 62.1298 16.1955C60.6908 16.1955 59.7064 16.9222 59.7064 17.9818C59.7064 18.8257 60.3346 19.3215 61.873 19.7L63.1876 20.024C65.6361 20.603 66.6527 21.5865 66.6527 23.3325C66.6527 25.5644 64.8745 26.9632 62.0457 26.9632C59.4003 26.9632 57.6132 25.5984 57.4969 23.439H59.327ZM70.508 16.0058V18.0641H72.1618V19.4799H70.508V24.2757C70.508 25.0212 70.8391 25.3675 71.5658 25.3675C71.7621 25.3648 71.9581 25.3514 72.1529 25.3273V26.7323C71.8261 26.7939 71.4938 26.8218 71.1613 26.8155C69.3992 26.8155 68.7128 26.1533 68.7128 24.4663V19.4799H67.4483V18.065H68.7128V16.0058H70.508ZM73.1212 22.4134C73.1212 19.6768 74.7333 17.9567 77.2464 17.9567C79.7684 17.9567 81.3736 19.6768 81.3736 22.4134C81.3736 25.159 79.7774 26.8701 77.2464 26.8701C74.7171 26.8728 73.1212 25.1599 73.1212 22.4134ZM79.5537 22.4134C79.5537 20.5368 78.6929 19.428 77.2464 19.428C75.8007 19.428 74.9408 20.5448 74.9408 22.4143C74.9408 24.2999 75.8007 25.3997 77.2464 25.3997C78.6945 25.3997 79.5537 24.299 79.5537 22.4143V22.4134ZM82.8461 18.0641H84.5489V19.5452H84.5904C84.828 18.5919 85.7017 17.936 86.6837 17.9737C86.8895 17.9728 87.0946 17.9952 87.2955 18.04V19.7099C87.036 19.6304 86.7651 19.5941 86.4933 19.6025C85.9678 19.581 85.4601 19.7902 85.1021 20.1749C84.745 20.5596 84.5733 21.0815 84.6327 21.6035V26.7645H82.8461V18.0641ZM95.5287 24.2086C95.2879 25.7881 93.7511 26.8719 91.7831 26.8719C89.2521 26.8719 87.6811 25.1769 87.6811 22.4564C87.6811 19.7269 89.2611 17.9576 91.7082 17.9576C94.1156 17.9576 95.6296 19.6105 95.6296 22.2487V22.8609H89.4848V22.9683C89.427 23.6158 89.6508 24.2569 90.0982 24.7283C90.5457 25.1998 91.1746 25.456 91.8238 25.432C92.6902 25.513 93.507 25.0156 93.8333 24.2086H95.5287ZM89.4921 21.6125H93.8414C93.8739 21.0305 93.6616 20.4614 93.2573 20.0423C92.8521 19.6231 92.2908 19.392 91.7074 19.4047C90.4912 19.3977 89.4994 20.378 89.4921 21.5946V21.6125ZM25.722 8.27375H26.4889C27.0165 8.33908 27.4972 7.96452 27.5628 7.43697C27.5655 7.41012 27.5682 7.38596 27.5691 7.35911C27.5691 6.83022 27.1718 6.48836 26.497 6.48836C25.9382 6.4108 25.422 6.80039 25.3434 7.35911L25.3408 7.38596H24.4978C24.5274 6.88828 24.7623 6.42524 25.1464 6.10744C25.5306 5.78964 26.0294 5.64562 26.5238 5.70978C27.6523 5.70978 28.4479 6.34249 28.4479 7.25083C28.4534 7.87901 28.0193 8.42564 27.4062 8.56281V8.62993C28.1401 8.66214 28.7101 9.28232 28.6815 10.0161C28.6287 10.5283 28.3718 10.9976 27.9689 11.3182C27.5659 11.6388 27.0509 11.7836 26.5399 11.7201C26.0391 11.7885 25.5315 11.6551 25.1292 11.349C24.7269 11.043 24.4626 10.5895 24.3948 10.0886C24.3922 10.0663 24.3886 10.0457 24.3868 10.0233H25.2414C25.2924 10.5719 25.7972 10.9254 26.5399 10.9254C27.2827 10.9254 27.7678 10.528 27.7678 9.96782C27.7678 9.40045 27.3105 9.04964 26.5122 9.04964H25.7211V8.27106H25.722V8.27375ZM29.6525 10.3589C29.6525 9.57943 30.2333 9.13018 31.2624 9.06754L32.4348 9.00042V8.62724C32.4348 8.16994 32.1341 7.91131 31.5488 7.91131C31.0727 7.91131 30.7425 8.08761 30.6467 8.39367H29.8198C29.9075 7.65089 30.6073 7.17297 31.5891 7.17297C32.6737 7.17297 33.2858 7.71264 33.2858 8.62724V11.5831H32.4634V10.9746H32.3963C32.1174 11.419 31.621 11.6788 31.0969 11.6547C30.7291 11.6931 30.3623 11.5742 30.0871 11.3273C29.8119 11.0804 29.654 10.7286 29.6525 10.3589ZM32.4339 9.9902V9.62865L31.377 9.69577C30.781 9.73604 30.5116 9.9374 30.5116 10.3204C30.5116 10.7097 30.8499 10.9361 31.3143 10.9361C31.5891 10.9636 31.8635 10.8785 32.0744 10.7003C32.2855 10.5219 32.4151 10.2657 32.4339 9.9902ZM35.5508 7.97574V11.584H34.6971V7.25709H37.5465V7.97574H35.5508ZM42.7209 9.41835C42.7209 10.7938 42.0256 11.6556 40.9329 11.6556C40.3853 11.6937 39.8655 11.4101 39.6012 10.929H39.5341V13.0231H38.6804V7.25709H39.5028V7.97216H39.5663C39.8348 7.47545 40.361 7.17208 40.9257 7.18461C42.0265 7.18371 42.7209 8.04286 42.7209 9.41835ZM41.843 9.41835C41.843 8.50464 41.4099 7.95247 40.6877 7.95247C39.969 7.95247 39.5198 8.51627 39.5198 9.42193C39.5198 10.324 39.969 10.8878 40.685 10.8878C41.4099 10.8878 41.843 10.3356 41.843 9.41835ZM43.8583 13.1322V12.3984C43.9505 12.41 44.0436 12.4154 44.1376 12.4145C44.5142 12.4422 44.8513 12.1818 44.9197 11.8105L44.9833 11.6001L43.4172 7.25709H44.347L45.4325 10.6936H45.4996L46.5807 7.25709H47.4854L45.8728 11.7621C45.5032 12.8154 45.0933 13.1528 44.2118 13.1528C44.0938 13.1513 43.9758 13.1448 43.8583 13.1331V13.1322ZM48.1513 10.3553H49.0014C49.0847 10.7366 49.4426 10.9352 49.9429 10.9352C50.512 10.9352 50.8611 10.6847 50.8611 10.2954C50.8611 9.87833 50.5478 9.67966 49.9429 9.67966H49.2959V9.01653H49.9321C50.4485 9.01653 50.7116 8.81786 50.7116 8.45721C50.7116 8.13951 50.4566 7.89788 49.9321 7.89788C49.4551 7.89788 49.1052 8.10014 49.0506 8.44289H48.2282C48.3565 7.62624 49.1151 7.06273 49.9339 7.17566C50.9631 7.17566 51.551 7.64104 51.551 8.3713C51.5611 8.79101 51.2759 9.16053 50.8673 9.25726V9.32438C51.356 9.38702 51.7193 9.80584 51.7139 10.298C51.7139 11.1205 51.0141 11.6655 49.9447 11.6655C48.9987 11.6619 48.2309 11.2297 48.1513 10.3553ZM52.9417 11.5831V7.2562H53.7883V10.2318H53.8554L55.8502 7.2553H56.6968V11.5831H55.8502V8.59055H55.7867L53.7892 11.5831H52.9417ZM61.3593 7.97574H59.9973V11.584H59.1426V7.97574H57.7805V7.25709H61.3602V7.97574H61.3593ZM65.9592 10.4144C65.719 11.2303 64.929 11.7572 64.0834 11.6655C63.5066 11.6805 62.9523 11.4414 62.5675 11.0115C62.1827 10.5816 62.0063 10.0042 62.0851 9.43266C62.0085 8.85935 62.1845 8.28099 62.5674 7.84753C62.9502 7.41397 63.5024 7.16789 64.0807 7.17297C65.2853 7.17297 66.012 7.99543 66.012 9.35481V9.65281H62.9567V9.70114C62.9292 10.0223 63.0387 10.3401 63.2583 10.5761C63.4779 10.8121 63.7871 10.9442 64.1094 10.9397C64.5273 10.9898 64.9327 10.7831 65.1385 10.4153L65.9592 10.4144ZM62.9567 9.02011H65.1412C65.1627 8.72666 65.0595 8.43776 64.857 8.22428C64.6545 8.01089 64.3714 7.89268 64.0772 7.89878C63.7787 7.89487 63.4913 8.01178 63.2803 8.2229C63.0693 8.4341 62.9526 8.72161 62.9567 9.02011ZM69.58 7.2562H71.5309C72.3775 7.2562 72.8742 7.6849 72.8742 8.35698C72.8769 8.79549 72.5726 9.17761 72.143 9.26979V9.3378C72.6677 9.37148 73.0742 9.80991 73.0684 10.3356C73.0684 11.0909 72.5001 11.5831 71.5515 11.5831H69.5809V7.2562H69.58ZM70.4266 7.9122V9.03264H71.2732C71.7896 9.03264 72.0366 8.83397 72.0366 8.46795C72.0366 8.13056 71.8218 7.9122 71.368 7.9122H70.4266ZM70.4266 9.65997V10.9272H71.4396C71.9444 10.9272 72.2146 10.7034 72.2146 10.2945C72.2146 9.86133 71.9086 9.65908 71.3331 9.65908H70.4266V9.65997Z" fill="white"/>
</svg>
