<svg width="24" height="24" viewBox="0 0 24 24" fill="none" xmlns="http://www.w3.org/2000/svg">
<path d="M10.883 19.3322L10.8823 19.3316C8.2971 17.032 6.19229 15.1589 4.72777 13.4025C3.26867 11.6527 2.5 10.0816 2.5 8.3951C2.5 5.65902 4.68702 3.5 7.5 3.5C9.09217 3.5 10.6254 4.22946 11.6224 5.37792L12 5.81285L12.3776 5.37792C13.3746 4.22946 14.9078 3.5 16.5 3.5C19.313 3.5 21.5 5.65902 21.5 8.3951C21.5 10.0816 20.7313 11.6527 19.2721 13.4039C17.8098 15.1588 15.7093 17.0312 13.1297 19.3307L13.1184 19.3408L13.1173 19.3417L12.0013 20.3308L10.883 19.3322Z" stroke="white"/>
</svg>
