<svg width="66" height="55" viewBox="0 0 66 55" fill="none" xmlns="http://www.w3.org/2000/svg">
<g clip-path="url(#clip0_7440_104862)">
<path d="M43.5315 9.39374C43.9032 8.31512 43.3267 7.62294 42.997 7.42558C42.227 6.85776 41.3672 6.64069 40.4414 6.78026C40.3682 6.79119 40.2967 6.81111 40.2243 6.82654C40.2874 6.72206 40.347 6.61846 40.4012 6.51589C40.7906 5.77536 40.8636 5.1023 40.6179 4.5155C40.2418 3.6175 39.2537 3.29216 39.2116 3.27861L39.1921 3.27301C37.5004 2.83662 36.3601 4.46413 36.3124 4.53377L36.2735 4.6084C36.2598 4.64513 36.249 4.68647 36.2359 4.72412C35.8165 4.0234 35.1864 3.56836 34.3616 3.37304C34.1598 3.30408 32.8939 2.92405 31.9295 3.91179C31.8103 4.03432 31.7123 4.17315 31.6249 4.31837C31.2474 4.34189 30.8549 4.44507 30.5229 4.7068C30.0721 5.06289 29.8887 5.60774 30.0323 6.16491C30.185 6.7572 30.68 7.21089 31.2934 7.32141C31.8546 7.42232 32.5885 7.71467 33.4277 8.42525C33.1108 8.51124 32.823 8.64661 32.5761 8.84371C31.1027 10.017 27.8597 21.8695 27.7887 25.3795C27.7828 25.6755 27.9327 25.9311 28.1805 26.0476C28.3449 26.1247 28.5315 26.1307 28.7067 26.0703C28.7952 26.0398 28.8808 25.9924 28.959 25.9286C31.7357 23.662 39.2173 13.7917 39.2314 11.9643C39.2333 11.7146 39.1886 11.469 39.1059 11.2289C40.1716 11.3509 40.8045 11.6092 41.1761 11.8594C41.7174 12.2239 42.4155 12.3237 43.0034 12.121L43.0222 12.1145C43.5103 11.9399 43.8662 11.57 43.9996 11.0993C44.1974 10.3988 43.838 9.84037 43.4828 9.51655C43.4996 9.47516 43.5176 9.43429 43.5315 9.39374ZM42.5965 7.99099C42.6516 8.02632 43.117 8.3522 42.8862 9.11136C42.8664 9.09998 42.8465 9.09042 42.8266 9.07954C42.7927 9.06056 42.759 9.04261 42.7249 9.02452C42.6376 8.97764 42.5509 8.93349 42.4644 8.89242C42.4378 8.8796 42.4113 8.86691 42.385 8.85482C40.9902 8.21818 39.6943 8.31334 38.6203 8.68376C38.2394 8.81512 37.8862 8.98109 37.5661 9.16027C37.5972 9.13133 37.6296 9.10192 37.6613 9.07312C37.7054 9.03279 37.7495 8.99231 37.7949 8.95186C37.8437 8.90842 37.8936 8.86544 37.9445 8.8223C37.9867 8.78622 38.0306 8.7504 38.074 8.71459C38.1542 8.649 38.236 8.58403 38.3201 8.52005C38.3724 8.48002 38.4249 8.44009 38.4786 8.40156C38.5304 8.36399 38.5835 8.32713 38.6363 8.29053C38.6953 8.25014 38.755 8.21102 38.8153 8.17233C38.8744 8.13439 38.934 8.09674 38.9944 8.06064C39.0791 8.00992 39.1651 7.96124 39.2521 7.91514C39.299 7.89025 39.3464 7.86652 39.394 7.84323C39.7658 7.65951 40.1537 7.52029 40.5486 7.46027C41.2899 7.34856 41.9523 7.51718 42.5965 7.99099ZM36.9188 4.8852C37.0657 4.68974 37.8997 3.66064 38.9997 3.9354C39.0762 3.96252 39.7309 4.21177 39.9676 4.77771C40.1315 5.16948 40.0673 5.64892 39.7763 6.20235C39.6058 6.52656 39.379 6.86726 39.1019 7.21547C39.0598 7.23622 39.0192 7.26008 38.9775 7.28185C38.8895 7.32748 38.8017 7.373 38.7162 7.42221C38.6568 7.45663 38.5998 7.49272 38.5417 7.52833C38.4749 7.56958 38.4082 7.61049 38.3433 7.65372C38.2826 7.69355 38.2233 7.73433 38.1645 7.77579C38.1053 7.8174 38.0467 7.8591 37.989 7.90167C37.9291 7.94594 37.8701 7.9901 37.8121 8.03522C37.7599 8.07588 37.7092 8.11667 37.6588 8.15769C37.5993 8.20597 37.5397 8.25391 37.4822 8.3028C37.4434 8.33589 37.4064 8.36899 37.3685 8.40226C37.122 8.61812 36.8975 8.83311 36.7 9.03599C36.6973 9.03873 36.694 9.04216 36.6912 9.0449C36.7624 8.6062 36.8195 8.09538 36.8322 7.56129C36.833 7.52787 36.835 7.49501 36.8352 7.46145C36.8363 7.36668 36.8341 7.27108 36.8322 7.17523C36.8311 7.12308 36.831 7.0709 36.8286 7.01857C36.8249 6.92824 36.8178 6.83861 36.8106 6.74799C36.8062 6.6906 36.8019 6.6333 36.796 6.57593C36.7867 6.48771 36.7747 6.39992 36.7619 6.3121C36.7532 6.25385 36.7444 6.19599 36.734 6.13786C36.7187 6.0517 36.7009 5.96626 36.6813 5.88159C36.6743 5.85182 36.6703 5.82152 36.6631 5.792C36.7354 5.45812 36.8194 5.1601 36.9188 4.8852ZM32.4479 4.37645C33.1461 3.6731 34.0945 4.00979 34.133 4.02393C34.1482 4.0297 34.1633 4.03435 34.1787 4.03806C34.8326 4.18909 35.3095 4.53099 35.6364 5.08291C35.776 5.31842 35.878 5.58066 35.9544 5.85702L35.9624 5.88706C36.1025 6.41293 36.1422 6.99101 36.1285 7.54578C36.0306 7.22991 35.9005 6.91464 35.7312 6.61061C35.7259 6.60109 35.7202 6.59208 35.7151 6.583C35.6778 6.51739 35.6391 6.45245 35.5981 6.38778C35.5731 6.34833 35.5465 6.30938 35.52 6.27078C35.4981 6.23892 35.4762 6.20676 35.453 6.17535C35.4154 6.12317 35.3763 6.07166 35.3357 6.0208C35.3249 6.00697 35.3133 5.99325 35.302 5.97958C34.9768 5.58171 34.56 5.22596 34.0287 4.94254C34.014 4.9348 33.9993 4.92691 33.9846 4.91918C33.9091 4.87988 33.8324 4.84184 33.7524 4.8059C33.7137 4.78838 33.673 4.77172 33.6331 4.75496C33.5722 4.72919 33.5121 4.70296 33.4484 4.67929C33.3322 4.63515 33.2125 4.59337 33.0874 4.55511C33.0866 4.55474 33.0835 4.55366 33.0822 4.55329C33.0476 4.53976 32.9724 4.51286 32.8672 4.48054C32.8665 4.48045 32.866 4.47997 32.865 4.47979C32.758 4.44711 32.6208 4.41087 32.4623 4.38003C32.4569 4.37846 32.4528 4.3774 32.4479 4.37645ZM31.422 6.64442C31.0778 6.58257 30.8 6.32774 30.7141 5.99526C30.6785 5.85618 30.6311 5.50468 30.9639 5.24235C31.0577 5.16796 31.1624 5.11411 31.273 5.07599C31.4488 5.01536 31.6394 4.99622 31.8266 4.99914C31.8266 4.99914 31.8273 4.99923 31.8276 4.99913C31.8325 4.99924 31.8372 4.99975 31.8421 4.99986C31.9068 5.00137 31.9709 5.00469 32.0336 5.01113C32.0646 5.01438 32.0941 5.01883 32.1244 5.02248C32.1754 5.02936 32.226 5.03669 32.2739 5.04529C32.2927 5.04865 32.3114 5.05206 32.3295 5.05567C32.5448 5.09926 32.7191 5.1557 32.8055 5.18614C32.8223 5.19232 32.8327 5.19646 32.8347 5.19677C32.8447 5.20101 32.855 5.20436 32.8654 5.20766C33.0477 5.26264 33.2203 5.32739 33.3852 5.39971C33.4321 5.42028 33.4732 5.44438 33.5182 5.46611C33.6329 5.52125 33.7459 5.57847 33.852 5.64219C33.8985 5.67031 33.9407 5.70056 33.9848 5.72985C34.0845 5.79607 34.1815 5.86537 34.2728 5.93992C34.3087 5.96925 34.3435 5.99908 34.3775 6.02923C34.4801 6.12038 34.5783 6.21637 34.6691 6.31885C34.6833 6.33463 34.6986 6.3502 34.7126 6.36623C35.1638 6.89444 35.4645 7.56698 35.609 8.38222C35.7091 8.94718 35.7153 9.48917 35.6909 9.91832C35.5642 9.74041 35.438 9.57464 35.3129 9.41473C35.2923 9.38804 35.2711 9.36282 35.2503 9.33652C35.1349 9.19134 35.0199 9.05356 34.9062 8.92285C34.8869 8.90079 34.8679 8.87813 34.8484 8.85612C33.5015 7.33544 32.2881 6.7999 31.422 6.64442ZM38.5286 11.96C38.5239 12.508 37.6573 13.9983 36.4166 15.8072C36.3843 15.8057 36.352 15.8025 36.3185 15.8102C35.7559 15.9389 34.9563 15.907 34.4376 15.5456C34.2796 15.4352 34.0594 15.4723 33.9472 15.6269C33.8342 15.7817 33.871 15.9965 34.0293 16.1067C34.58 16.4899 35.2904 16.5927 35.8919 16.5595C35.1051 17.6712 34.212 18.863 33.3095 20.0109C33.2447 19.9855 33.1742 19.973 33.1013 19.9895C32.7481 20.0704 32.2482 20.0521 31.9279 19.8294C31.77 19.7193 31.5507 19.7554 31.4376 19.911C31.3249 20.0657 31.3616 20.2806 31.52 20.3907C31.8845 20.6445 32.3435 20.7251 32.7486 20.7176C31.0805 22.7966 29.4564 24.6276 28.5095 25.4003C28.5033 25.4054 28.4973 25.4097 28.4931 25.4133C28.4924 25.4073 28.4921 25.4002 28.4922 25.3921C28.5082 24.5977 28.6665 23.4799 28.9147 22.2038C28.9308 22.2112 28.9436 22.2229 28.9611 22.2282C29.2606 22.3171 29.567 22.3783 29.8712 22.41C29.925 22.4155 29.9776 22.4091 30.0257 22.3925C30.1493 22.3498 30.2437 22.2408 30.259 22.1047C30.28 21.9154 30.1407 21.7458 29.9478 21.726C29.6868 21.6986 29.4239 21.646 29.1662 21.5698C29.1256 21.5578 29.085 21.5562 29.045 21.5587C29.3667 20.0211 29.7993 18.3046 30.2679 16.6519C30.5095 16.9299 30.8346 17.183 31.222 17.2903C31.2945 17.3106 31.368 17.3068 31.4344 17.2839C31.5385 17.248 31.6239 17.165 31.6565 17.0531C31.7097 16.8703 31.6016 16.6801 31.4148 16.6283C31.0362 16.5233 30.7093 16.1536 30.5528 15.8337C30.5442 15.8158 30.5291 15.8039 30.5179 15.7881C30.8907 14.5253 31.2758 13.3315 31.6384 12.3199C31.9884 12.8 32.516 13.2791 33.1676 13.4593C33.2401 13.4794 33.3136 13.4757 33.3799 13.4529C33.4842 13.4169 33.5698 13.3337 33.6021 13.2219C33.655 13.039 33.5472 12.849 33.3605 12.7972C32.7471 12.6273 32.2213 12.0376 31.9724 11.5289C31.9657 11.5155 31.9539 11.5067 31.9458 11.4946C32.3812 10.3681 32.7643 9.58164 33.0208 9.37713C33.163 9.26391 33.3213 9.17731 33.4974 9.11658C33.6639 9.05914 33.8469 9.02475 34.0478 9.01323C34.3093 9.28533 34.5683 9.5898 34.8234 9.92105C34.8401 9.94272 34.8566 9.96394 34.873 9.98601C34.9797 10.1263 35.0854 10.2729 35.1907 10.4229C35.2144 10.4567 35.2377 10.4884 35.2616 10.5229C35.3846 10.7017 35.5068 10.8859 35.6274 11.0776C35.6353 11.0903 35.6464 11.0999 35.656 11.1116C35.6651 11.1225 35.6732 11.1348 35.6838 11.1447C35.6867 11.1476 35.6893 11.1508 35.6927 11.1536C35.7018 11.1618 35.7126 11.1667 35.7225 11.1735C35.7249 11.1753 35.7274 11.1769 35.7303 11.1785C35.7415 11.186 35.7517 11.1948 35.7637 11.201C35.7663 11.2022 35.7684 11.2039 35.7711 11.2053L35.7714 11.2052C35.7728 11.2057 35.7741 11.2061 35.7752 11.2064C35.7877 11.2124 35.8015 11.2152 35.815 11.2197C35.8181 11.2208 35.8209 11.2216 35.8241 11.2228C35.835 11.2263 35.8454 11.2314 35.8567 11.2338C35.8611 11.2349 35.8656 11.2348 35.8703 11.2353C35.8794 11.2369 35.8887 11.237 35.898 11.2377C35.9068 11.2383 35.9148 11.2377 35.9234 11.238C35.9351 11.2381 35.9461 11.2408 35.9577 11.2398C36.1654 11.2213 36.3683 11.2064 36.5674 11.1941C36.6126 11.1914 36.655 11.1899 36.6993 11.1874C36.8556 11.1786 37.0103 11.1712 37.161 11.1664C37.1996 11.165 37.2363 11.1644 37.2744 11.1637C37.4318 11.1598 37.5866 11.1573 37.737 11.1576C37.763 11.1577 37.7888 11.1576 37.8146 11.1578C37.9875 11.159 38.1565 11.1623 38.3196 11.1693C38.32 11.1691 38.3203 11.1694 38.3207 11.1692C38.4621 11.4282 38.5307 11.6882 38.5286 11.96ZM43.3216 10.9164C43.2286 11.2456 42.9768 11.3981 42.7818 11.4674C42.7778 11.4688 42.7739 11.4702 42.7699 11.4716C42.3908 11.6023 41.9341 11.5338 41.5747 11.2917C40.8949 10.8343 39.8793 10.5694 38.5526 10.4932C38.5503 10.493 38.5483 10.4914 38.5456 10.4914C38.5308 10.4905 38.5151 10.4906 38.5003 10.4897C38.3852 10.4835 38.2657 10.4799 38.1456 10.4768C38.0419 10.4739 37.9368 10.4719 37.8294 10.471C37.7204 10.4703 37.6107 10.4699 37.4974 10.4714C37.3423 10.4732 37.1827 10.4783 37.0213 10.4844C36.9607 10.4866 36.9047 10.4864 36.8431 10.4892C36.8663 10.4696 36.8932 10.449 36.9172 10.429C36.9263 10.423 36.9374 10.4217 36.9458 10.4152C37.8485 9.68893 39.4913 8.721 41.4002 9.23368C41.4989 9.26038 41.5992 9.29588 41.6994 9.33093C41.7474 9.34751 41.7948 9.35974 41.8431 9.37838C42.1503 9.49729 42.4643 9.65641 42.7825 9.86117L42.8443 9.90158C42.8462 9.90272 42.8484 9.90278 42.8499 9.90408C43.0169 10.016 43.4729 10.3816 43.3216 10.9164Z" fill="white"/>
<path d="M36.5698 11.6486C35.8003 11.6297 35.0074 11.392 34.2136 10.9421C34.0455 10.8469 33.8306 10.9033 33.733 11.0678C33.6353 11.2323 33.6925 11.4427 33.8605 11.5379C34.757 12.046 35.6624 12.315 36.551 12.337C36.595 12.3379 36.6374 12.3312 36.6768 12.3176C36.8105 12.2715 36.9077 12.1483 36.9121 12.0014C36.9171 11.8115 36.764 11.6536 36.5698 11.6486Z" fill="white"/>
</g>
<path d="M65.103 42.076C55.5135 40.6023 51.097 39.5249 35.2844 42.076C19.4718 44.6272 11.6114 49.2659 7.84036 50.7024C7.1846 46.7904 19.4718 42.1632 35.2844 39.612C51.097 37.0609 64.4472 38.1641 65.103 42.076Z" fill="white"/>
<g clip-path="url(#clip1_7440_104862)">
<path fill-rule="evenodd" clip-rule="evenodd" d="M23.8274 38.0404C23.5997 36.5073 24.6819 35.0833 26.2447 34.8598C27.8074 34.6364 29.2589 35.6981 29.4867 37.2313C29.7144 38.7645 28.6322 40.1885 27.0694 40.4119C25.5067 40.6353 24.0552 39.5736 23.8274 38.0404Z" fill="white"/>
<path fill-rule="evenodd" clip-rule="evenodd" d="M39.3899 35.8153C39.1622 34.2822 40.2444 32.8582 41.8072 32.6347C43.3699 32.4113 44.8214 33.473 45.0492 35.0062C45.2769 36.5394 44.1947 37.9634 42.6319 38.1868C41.0692 38.4102 39.6177 37.3485 39.3899 35.8153Z" fill="white"/>
<path fill-rule="evenodd" clip-rule="evenodd" d="M9.79994 11.6961C9.68607 10.9295 10.2272 10.2175 11.0086 10.1058L16.6678 9.29667C17.3422 9.20025 17.9921 9.58414 18.2209 10.2139L20.2744 15.8685L43.1655 12.5956C43.5871 12.5353 44.0142 12.6627 44.3304 12.9429C44.6465 13.2232 44.8187 13.6273 44.8001 14.0449L44.2658 26.0247C44.2142 27.011 43.8105 27.9481 43.1256 28.6718C42.4441 29.392 41.5272 29.8554 40.5342 29.9818L26.8067 31.9445C25.8182 32.1014 24.8047 31.9141 23.942 31.4147C23.0754 30.913 22.4161 30.1284 22.0795 29.1981C22.0794 29.1977 22.0797 29.1985 22.0795 29.1981L17.995 17.951C17.9798 17.914 17.966 17.8762 17.9539 17.8376L15.9205 12.2385L11.421 12.8819C10.6396 12.9936 9.91382 12.4627 9.79994 11.6961ZM21.2531 18.5636L24.7742 28.2593C24.8863 28.5696 25.1062 28.8313 25.3952 28.9985C25.6842 29.1658 26.0239 29.2281 26.355 29.1744L26.3821 29.1702L40.1341 27.204L40.1612 27.2004C40.4941 27.1592 40.8017 27.0044 41.03 26.7631C41.2572 26.523 41.3916 26.2124 41.4098 25.8853L41.8677 15.6161L21.2531 18.5636Z" fill="white"/>
</g>
<path d="M14.2225 39.5399C14.2854 39.5209 14.8382 39.3777 15.2856 40.0369C15.264 40.0446 15.2438 40.0535 15.2226 40.0615C15.186 40.0751 15.1504 40.089 15.1144 40.1032C15.0219 40.1392 14.9319 40.1764 14.8444 40.2155C14.8173 40.2274 14.7904 40.2393 14.7641 40.2514C13.3736 40.8979 12.6197 41.9371 12.2234 42.9846C12.0828 43.3561 11.9871 43.7288 11.9228 44.0849C11.92 44.043 11.9177 43.9997 11.9154 43.9574C11.912 43.8983 11.9084 43.8392 11.9058 43.7791C11.903 43.7144 11.9012 43.6493 11.8999 43.5834C11.8986 43.5284 11.8986 43.4724 11.8983 43.4168C11.8982 43.3143 11.8996 43.2111 11.9032 43.1067C11.9053 43.0416 11.9075 42.9765 11.9116 42.9114C11.9153 42.8482 11.9204 42.7846 11.9255 42.7213C11.9316 42.651 11.9391 42.5809 11.9473 42.5107C11.9553 42.4418 11.964 42.3727 11.9743 42.3041C11.9887 42.2077 12.0055 42.1117 12.025 42.0166C12.0355 41.9652 12.0472 41.9143 12.0594 41.8635C12.1531 41.4654 12.2921 41.0836 12.4974 40.7471C12.8838 40.116 13.4394 39.7236 14.2225 39.5399ZM8.15924 41.8427C8.10003 41.6069 7.82683 40.3199 8.74533 39.6649C8.8155 39.6244 9.42933 39.2893 10.0241 39.4721C10.4358 39.5987 10.7705 39.9534 11.0181 40.5267C11.1631 40.8625 11.2851 41.2513 11.3808 41.683C11.3701 41.7281 11.3629 41.774 11.3533 41.8194C11.3327 41.915 11.3123 42.0103 11.2962 42.1064C11.2852 42.1731 11.277 42.2393 11.2678 42.3058C11.2574 42.3826 11.2468 42.4591 11.2392 42.5357C11.2316 42.607 11.2257 42.6778 11.2206 42.7487C11.2153 42.82 11.2105 42.8909 11.207 42.9617C11.2034 43.0351 11.2003 43.1079 11.1986 43.1805C11.197 43.2459 11.1966 43.3102 11.1965 43.3745C11.1963 43.4503 11.1958 43.5259 11.1973 43.6005C11.1984 43.651 11.2007 43.7 11.2026 43.7499C11.2141 44.0739 11.239 44.3808 11.2717 44.6595C11.2721 44.6633 11.2727 44.668 11.2731 44.6718C10.9749 44.3378 10.6112 43.9684 10.2008 43.6176C10.1751 43.5957 10.1506 43.5732 10.1245 43.5516C10.0509 43.4902 9.97459 43.4308 9.89824 43.371C9.85669 43.3385 9.81576 43.3052 9.77318 43.2737C9.70005 43.2188 9.62527 43.1669 9.54971 43.1144C9.50189 43.0811 9.45428 43.0477 9.40552 43.0155C9.33045 42.9662 9.254 42.9192 9.17697 42.8728C9.12581 42.8421 9.07484 42.8117 9.02264 42.7825C8.94536 42.739 8.867 42.6979 8.78812 42.6586C8.76034 42.6448 8.73405 42.6285 8.7063 42.6151C8.49094 42.3472 8.31114 42.0934 8.15924 41.8427ZM4.90244 44.8934C4.79764 43.917 5.66781 43.4159 5.70349 43.3959C5.7177 43.3881 5.73098 43.3797 5.74375 43.3704C6.28012 42.9732 6.85293 42.8315 7.49432 42.9373C7.7681 42.9824 8.03881 43.0728 8.30417 43.1917L8.33288 43.2048C8.83449 43.435 9.3128 43.7743 9.73877 44.139C9.42867 44.0111 9.09847 43.908 8.75198 43.8416C8.74116 43.8395 8.73042 43.8381 8.72005 43.8361C8.64482 43.8224 8.56918 43.8101 8.49233 43.7997C8.4454 43.7934 8.39792 43.7886 8.35068 43.784C8.31176 43.7801 8.27254 43.7762 8.23312 43.7736C8.16816 43.7687 8.10279 43.7653 8.03703 43.7634C8.01927 43.7628 8.00109 43.7628 7.98316 43.7626C7.46354 43.7539 6.91834 43.8413 6.35658 44.0615C6.34113 44.0676 6.32553 44.0737 6.31007 44.0798C6.23102 44.1118 6.15216 44.1454 6.07285 44.1828C6.0344 44.2008 5.99533 44.2209 5.95668 44.2404C5.89754 44.2699 5.83858 44.2985 5.77932 44.3315C5.67047 44.391 5.56121 44.4547 5.45124 44.5247C5.45124 44.5247 5.44762 44.5267 5.44649 44.5275C5.41381 44.5449 5.34462 44.5845 5.25202 44.6433L5.25008 44.6445C5.15605 44.7044 5.03996 44.7848 4.91443 44.8848C4.90973 44.8879 4.90629 44.8903 4.90244 44.8934ZM6.02366 47.1168C5.75516 47.3371 5.37792 47.3841 5.06248 47.2366C4.93076 47.1746 4.62503 46.9858 4.6322 46.567C4.6339 46.4486 4.65866 46.3352 4.69945 46.2274C4.76433 46.0559 4.87122 45.8997 4.99315 45.7603L4.99377 45.7595C4.997 45.7559 5.00041 45.7527 5.00364 45.749C5.04614 45.7012 5.08975 45.6549 5.13489 45.6116C5.15727 45.5903 5.17959 45.5709 5.20185 45.5503C5.23982 45.5162 5.27792 45.4827 5.31528 45.452C5.32994 45.44 5.34455 45.428 5.35894 45.4167C5.53075 45.282 5.68639 45.1864 5.76549 45.1406C5.78108 45.1319 5.79096 45.1267 5.79245 45.1254C5.80221 45.1205 5.8114 45.1149 5.82065 45.1091C5.98028 45.0066 6.14133 44.9177 6.3034 44.8394C6.34954 44.8171 6.39465 44.8015 6.44047 44.7814C6.55703 44.73 6.67409 44.6812 6.79182 44.6418C6.84358 44.6247 6.89427 44.6121 6.94539 44.5976C7.06105 44.5646 7.17736 44.5356 7.29415 44.5143C7.34005 44.5059 7.38571 44.4987 7.43104 44.4923C7.56809 44.473 7.70605 44.4602 7.84437 44.4572C7.86582 44.4565 7.88781 44.4549 7.9093 44.4546C8.61166 44.4513 9.33089 44.6539 10.062 45.0656C10.5687 45.3509 10.9974 45.6924 11.318 45.985C11.0976 45.967 10.887 45.9564 10.6818 45.9487C10.6477 45.9473 10.6144 45.9471 10.5805 45.946C10.3929 45.9405 10.2114 45.9393 10.0364 45.9416C10.0067 45.942 9.97682 45.9419 9.94713 45.9426C7.89453 45.9881 6.69919 46.5622 6.02366 47.1168ZM16.9782 40.8612C17.1767 41.1417 17.1352 41.4293 17.065 41.6208C17.0635 41.6247 17.062 41.6285 17.0605 41.6324C16.9206 42.0022 16.575 42.3032 16.1555 42.42C15.3625 42.641 14.5058 43.2386 13.5979 44.1916C13.5963 44.1932 13.5937 44.1937 13.592 44.1957C13.5819 44.2063 13.5718 44.2183 13.5618 44.2288C13.4833 44.3118 13.4041 44.3997 13.3249 44.4884C13.2562 44.5649 13.1875 44.6429 13.1181 44.7234C13.048 44.8053 12.9775 44.8879 12.9062 44.9743C12.8085 45.0926 12.7105 45.2164 12.6121 45.3422C12.575 45.3893 12.5391 45.4315 12.5019 45.4798C12.5014 45.4497 12.5024 45.4163 12.5022 45.3854C12.5032 45.3746 12.5094 45.3655 12.5096 45.3549C12.5176 44.2094 12.8094 42.3507 14.4314 41.237C14.5155 41.1795 14.6074 41.1265 14.6989 41.0732C14.7426 41.0475 14.7825 41.0196 14.8279 40.995C15.1175 40.839 15.4429 40.7036 15.8068 40.5942L15.878 40.5733C15.8801 40.5726 15.8815 40.571 15.8835 40.5707C16.078 40.5161 16.656 40.4053 16.9782 40.8612Z" fill="white"/>
<defs>
<clipPath id="clip0_7440_104862">
<rect width="20.6468" height="20.3411" fill="white" transform="matrix(0.945355 -0.326044 0.337333 0.941385 21.1992 7.23425)"/>
</clipPath>
<clipPath id="clip1_7440_104862">
<rect width="34.3009" height="33.678" fill="white" transform="matrix(0.989933 -0.141539 0.14694 0.989145 9.59375 10.3081)"/>
</clipPath>
</defs>
</svg>
