<svg width="48" height="36" viewBox="0 0 48 36" fill="none" xmlns="http://www.w3.org/2000/svg">
<path d="M20.8277 25.4572H17.2334L19.4816 11.0605H23.0757L20.8277 25.4572Z" fill="white"/>
<path d="M33.8573 11.4127C33.1483 11.1215 32.0239 10.7998 30.6335 10.7998C27.0839 10.7998 24.5844 12.7601 24.569 15.5627C24.5395 17.6305 26.3586 18.7789 27.7192 19.4684C29.1098 20.173 29.5825 20.6328 29.5825 21.2608C29.5684 22.2252 28.4588 22.6698 27.4239 22.6698C25.9889 22.6698 25.22 22.4406 24.0515 21.904L23.5782 21.674L23.0752 24.9058C23.9182 25.3035 25.4714 25.6565 27.0839 25.6719C30.8553 25.6719 33.3107 23.7419 33.3398 20.7554C33.3542 19.1165 32.3936 17.8607 30.3227 16.8346C29.0655 16.1758 28.2957 15.7316 28.2957 15.0577C28.3104 14.445 28.9468 13.8174 30.366 13.8174C31.5344 13.7866 32.393 14.0775 33.0433 14.3686L33.3684 14.5215L33.8573 11.4127Z" fill="white"/>
<path d="M38.6348 20.357C38.9307 19.5299 40.0698 16.3289 40.0698 16.3289C40.0548 16.3597 40.3652 15.4866 40.5427 14.9506L40.7939 16.1911C40.7939 16.1911 41.4746 19.6371 41.6224 20.357C41.0606 20.357 39.3447 20.357 38.6348 20.357ZM43.0716 11.0605H40.2913C39.4339 11.0605 38.7826 11.3207 38.4127 12.255L33.0737 25.4569H36.8452C36.8452 25.4569 37.4661 23.6801 37.5995 23.2974C38.0133 23.2974 41.6821 23.2974 42.2143 23.2974C42.3176 23.8028 42.6432 25.4569 42.6432 25.4569H45.9713L43.0716 11.0605Z" fill="white"/>
<path d="M14.2311 11.0605L10.711 20.8776L10.3264 18.8867C9.6756 16.5893 7.63458 14.0932 5.35693 12.8521L8.5812 25.4419H12.3821L18.0318 11.0605H14.2311Z" fill="white"/>
<path d="M7.44198 11.0605H1.65902L1.59985 11.3515C6.11092 12.5461 9.09854 15.4259 10.326 18.8872L9.06887 12.2707C8.86184 11.3512 8.22585 11.0909 7.44198 11.0605Z" fill="white"/>
</svg>
