<svg width="48" height="36" viewBox="0 0 48 36" fill="none" xmlns="http://www.w3.org/2000/svg">
<path d="M11.6148 33.609V31.4927C11.6148 30.6911 11.1349 30.162 10.3299 30.162C9.92741 30.162 9.47848 30.3063 9.16887 30.7553C8.93666 30.3705 8.59609 30.162 8.08523 30.162C7.74467 30.162 7.4041 30.2743 7.14093 30.6591V30.2422H6.42883V33.609H7.14093V31.7493C7.14093 31.156 7.45054 30.8675 7.91496 30.8675C8.37936 30.8675 8.62705 31.1881 8.62705 31.7493V33.609H9.33915V31.7493C9.33915 31.156 9.67972 30.8675 10.1132 30.8675C10.5931 30.8675 10.8253 31.1881 10.8253 31.7493V33.609H11.6148ZM22.1879 30.2262H21.0269V29.2001H20.3148V30.2262H19.6646V30.8996H20.3148V32.4547C20.3148 33.2243 20.6244 33.6892 21.4294 33.6892C21.739 33.6892 22.0795 33.5769 22.3118 33.4487L22.1105 32.8074C21.9093 32.9517 21.6616 32.9838 21.4913 32.9838C21.1507 32.9838 21.0114 32.7753 21.0114 32.4226V30.9156H22.1724V30.2262H22.1879ZM28.2408 30.162C27.8383 30.162 27.5597 30.3705 27.3893 30.6591V30.2422H26.6773V33.609H27.3893V31.7012C27.3893 31.14 27.6215 30.8194 28.0705 30.8194C28.2098 30.8194 28.3801 30.8515 28.5194 30.8835L28.7206 30.1781C28.5813 30.162 28.3801 30.162 28.2408 30.162ZM19.0918 30.5148C18.7513 30.2743 18.2714 30.162 17.7605 30.162C16.94 30.162 16.3982 30.5789 16.3982 31.2522C16.3982 31.8134 16.8007 32.134 17.5128 32.2302L17.8534 32.2623C18.2249 32.3264 18.4262 32.4386 18.4262 32.615C18.4262 32.8555 18.1475 33.0319 17.6831 33.0319C17.2187 33.0319 16.8317 32.8555 16.5995 32.6791L16.2589 33.2403C16.6304 33.5288 17.1413 33.6571 17.6522 33.6571C18.5965 33.6571 19.1538 33.1922 19.1538 32.5669C19.1538 31.9737 18.7048 31.6531 18.0391 31.5408L17.6986 31.5088C17.389 31.4767 17.1567 31.3965 17.1567 31.1881C17.1567 30.9476 17.389 30.8034 17.776 30.8034C18.1785 30.8034 18.5965 30.9797 18.7977 31.0919L19.0918 30.5148ZM38.0554 30.162C37.6529 30.162 37.3743 30.3705 37.2039 30.6591V30.2422H36.4919V33.609H37.2039V31.7012C37.2039 31.14 37.4361 30.8194 37.8851 30.8194C38.0244 30.8194 38.1947 30.8515 38.334 30.8835L38.5352 30.1781C38.3959 30.162 38.1947 30.162 38.0554 30.162ZM28.9529 31.9256C28.9529 32.9517 29.634 33.6892 30.6866 33.6892C31.1666 33.6892 31.5072 33.5769 31.8477 33.3044L31.5072 32.7112C31.2285 32.9196 30.9653 33.0319 30.6557 33.0319C30.083 33.0319 29.665 32.615 29.665 31.9417C29.665 31.3003 30.0675 30.8835 30.6557 30.8515C30.9653 30.8515 31.2285 30.9637 31.5072 31.1721L31.8477 30.5789C31.5072 30.2903 31.1666 30.1941 30.6866 30.1941C29.634 30.162 28.9529 30.8995 28.9529 31.9256ZM35.5475 31.9256V30.2422H34.8354V30.6591C34.6032 30.3384 34.2626 30.162 33.8137 30.162C32.9004 30.162 32.1883 30.8995 32.1883 31.9256C32.1883 32.9517 32.9004 33.6892 33.8137 33.6892C34.2936 33.6892 34.6342 33.5128 34.8354 33.1922V33.609H35.5475V31.9256ZM32.9314 31.9256C32.9314 31.3324 33.3028 30.8354 33.9221 30.8354C34.4948 30.8354 34.9128 31.3003 34.9128 31.9256C34.9128 32.5188 34.5103 33.0158 33.9221 33.0158C33.3028 32.9838 32.9314 32.5188 32.9314 31.9256ZM24.4017 30.162C23.4573 30.162 22.7762 30.8675 22.7762 31.9256C22.7762 32.9838 23.4573 33.6892 24.448 33.6892C24.928 33.6892 25.3924 33.5449 25.7794 33.2243L25.4388 32.6952C25.1602 32.9036 24.8196 33.0479 24.4945 33.0479C24.0456 33.0479 23.6121 32.8395 23.5038 32.2462H25.9187V31.9577C25.9342 30.8675 25.315 30.162 24.4017 30.162ZM24.4017 30.7873C24.8506 30.7873 25.1447 31.0759 25.2221 31.5889H23.5193C23.5811 31.14 23.8908 30.7873 24.4017 30.7873ZM42.1112 31.9256V28.8955H41.3992V30.6591C41.1669 30.3384 40.8263 30.162 40.3774 30.162C39.4641 30.162 38.752 30.8995 38.752 31.9256C38.752 32.9517 39.4641 33.6892 40.3774 33.6892C40.8574 33.6892 41.1979 33.5128 41.3992 33.1922V33.609H42.1112V31.9256ZM39.4796 31.9256C39.4796 31.3324 39.8511 30.8354 40.4703 30.8354C41.0431 30.8354 41.4611 31.3003 41.4611 31.9256C41.4611 32.5188 41.0586 33.0158 40.4703 33.0158C39.8666 32.9838 39.4796 32.5188 39.4796 31.9256ZM15.6242 31.9256V30.2422H14.9121V30.6591C14.6799 30.3384 14.3393 30.162 13.8904 30.162C12.9771 30.162 12.2649 30.8995 12.2649 31.9256C12.2649 32.9517 12.9771 33.6892 13.8904 33.6892C14.3703 33.6892 14.7109 33.5128 14.9121 33.1922V33.609H15.6242V31.9256ZM12.9771 31.9256C12.9771 31.3324 13.3486 30.8354 13.9678 30.8354C14.5405 30.8354 14.9585 31.3003 14.9585 31.9256C14.9585 32.5188 14.5561 33.0158 13.9678 33.0158C13.3486 32.9838 12.9771 32.5188 12.9771 31.9256Z" fill="white"/>
<path d="M29.5721 4.57422H18.8596V24.5025H29.5721V4.57422Z" fill="#FF5F00"/>
<path d="M19.5411 14.5313C19.5411 10.4911 21.3833 6.8999 24.2008 4.5752C22.1264 2.8918 19.5102 1.86572 16.6463 1.86572C9.88135 1.86572 4.41675 7.52517 4.41675 14.5313C4.41675 21.5375 9.88135 27.1969 16.6463 27.1969C19.4947 27.1969 22.1109 26.1708 24.1853 24.4875C21.3678 22.2109 19.5411 18.5875 19.5411 14.5313Z" fill="#EB001B"/>
<path d="M43.9994 14.5303C43.9994 21.5365 38.5348 27.196 31.7698 27.196C28.9214 27.196 26.3052 26.1699 24.2308 24.4865C27.0792 22.1618 28.8904 18.5705 28.8904 14.5303C28.8904 10.4902 27.0482 6.89892 24.2308 4.57423C26.3052 2.89082 28.9214 1.86475 31.7698 1.86475C38.5348 1.86475 43.9994 7.57228 43.9994 14.5303Z" fill="#F79E1B"/>
</svg>
