<svg width="48" height="36" viewBox="0 0 48 36" fill="none" xmlns="http://www.w3.org/2000/svg">
<path d="M11.9723 13.1904C12.8545 13.1904 13.6454 13.4904 14.2638 14.072L15.9674 12.3984C14.9331 11.4472 13.5845 10.856 11.9723 10.856C9.64016 10.856 7.62232 12.1784 6.6388 14.1016C6.2332 14.9032 6 15.7952 6 16.7464C6 17.6984 6.2332 18.6 6.6388 19.3912L6.64248 19.3888C7.62736 21.328 9.64304 22.6368 11.9723 22.6368C13.5845 22.6368 14.9432 22.116 15.9267 21.2144C17.0522 20.1928 17.7012 18.68 17.7012 16.8872C17.7012 16.476 17.6606 16.0752 17.5998 15.6848H11.9723V17.9488H15.1967C15.0547 18.7 14.639 19.3216 14.0002 19.7416C13.4628 20.1024 12.7734 20.3032 11.9723 20.3032C10.4108 20.3032 9.09264 19.2712 8.62616 17.8688H8.6228C8.50336 17.5112 8.44368 17.1432 8.44368 16.7464C8.44368 16.356 8.51464 15.9752 8.62616 15.6144V15.5856C9.1112 14.208 10.4318 13.1904 11.9723 13.1904Z" fill="white"/>
<path fill-rule="evenodd" clip-rule="evenodd" d="M23.0969 21.9285V17.7805H25.2975C26.2095 17.7805 26.9703 17.4901 27.5887 16.9093C28.2375 16.3285 28.5519 15.6069 28.5519 14.7349C28.5519 13.8837 28.2279 13.1621 27.5887 12.5717C26.9599 11.9805 26.1999 11.6797 25.2975 11.6797H21.7585V21.9285H23.0969ZM23.0969 16.5181V12.9421H25.3279C25.8551 12.9421 26.3015 13.1221 26.6455 13.4829C27.0007 13.8333 27.1831 14.2445 27.1831 14.7253C27.1831 15.2165 27.0007 15.6365 26.6455 15.9877C26.3015 16.3381 25.8551 16.5181 25.3279 16.5181H23.0969Z" fill="white"/>
<path fill-rule="evenodd" clip-rule="evenodd" d="M31.6245 14.6855C32.6077 14.6855 33.3885 14.9455 33.9565 15.4671C34.5245 15.9879 34.8085 16.6991 34.8085 17.6103V21.9383H33.5309V20.9663H33.4701C32.9221 21.7679 32.1821 22.1687 31.2693 22.1687C30.4885 22.1687 29.8293 21.9383 29.3021 21.4775C28.7749 21.0167 28.5117 20.4455 28.5117 19.7543C28.5117 19.0335 28.7853 18.4519 29.3429 18.0215C29.9005 17.5903 30.6405 17.3799 31.5733 17.3799C32.3645 17.3799 33.0237 17.5207 33.5309 17.8111V17.5103C33.5309 17.0495 33.3477 16.6591 32.9829 16.3487C32.6181 16.0279 32.1821 15.8671 31.6949 15.8671C30.9549 15.8671 30.3565 16.1783 29.9205 16.7991L28.7445 16.0679C29.4037 15.1463 30.3565 14.6855 31.6245 14.6855ZM29.9005 19.7847C29.9005 20.1255 30.0525 20.4159 30.3469 20.6463C30.6405 20.8767 30.9853 20.9863 31.3813 20.9863C31.9389 20.9863 32.4453 20.7759 32.8813 20.3759C33.3173 19.9647 33.5405 19.4839 33.5405 18.9327C33.1253 18.6127 32.5469 18.4423 31.7965 18.4423C31.2589 18.4423 30.8029 18.5727 30.4381 18.8327C30.0829 19.0831 29.9005 19.4039 29.9005 19.7847Z" fill="white"/>
<path d="M42.1478 14.9121L37.6862 25.0201H36.3174L37.9702 21.4841L35.0398 14.9121H36.4902L38.6094 19.9609H38.6398L40.6982 14.9121H42.1478Z" fill="white"/>
<path fill-rule="evenodd" clip-rule="evenodd" d="M0 5.83981C0 4.16061 1.3776 2.7998 3.07696 2.7998H44.9232C46.6224 2.7998 48 4.16061 48 5.83981V30.1598C48 31.839 46.6224 33.1998 44.9232 33.1998H3.07696C1.3776 33.1998 0 31.839 0 30.1598V5.83981ZM3.07696 3.40781H44.9232C46.2824 3.40781 47.3848 4.49661 47.3848 5.83981V30.1598C47.3848 31.503 46.2824 32.5918 44.9232 32.5918H3.07696C1.71744 32.5918 0.615363 31.503 0.615363 30.1598V5.83981C0.615363 4.49661 1.71744 3.40781 3.07696 3.40781Z" fill="white"/>
</svg>
