<svg width="48" height="36" viewBox="0 0 48 36" fill="none" xmlns="http://www.w3.org/2000/svg">
<path fill-rule="evenodd" clip-rule="evenodd" d="M33.6943 17.1987V23.9931H37.3386V19.9668H41.4695C43.2079 19.9534 44.6846 18.8033 45.2415 17.1987H33.6943Z" fill="white"/>
<path fill-rule="evenodd" clip-rule="evenodd" d="M33.2075 11.6001C33.4197 14.3773 35.9567 16.57 39.0553 16.57C39.0656 16.57 45.3929 16.57 45.3929 16.57C45.4391 16.3154 45.4639 16.0525 45.4639 15.7837C45.4639 13.4832 43.672 11.6171 41.455 11.6002L33.2075 11.6001Z" fill="white"/>
<path fill-rule="evenodd" clip-rule="evenodd" d="M27.8136 16.5039L27.816 16.4977L27.8168 16.4977C27.8543 16.4283 27.9253 16.3813 28.0075 16.3813C28.1263 16.3813 28.2229 16.4793 28.2261 16.6015V23.9307H31.8711V11.6001H28.2261C27.7641 11.616 27.2424 11.9673 27.0477 12.3985L24.1478 18.8403C24.1406 18.8667 24.1294 18.8912 24.1143 18.9133L24.1135 18.9155V18.9154C24.0696 18.9807 23.9962 19.0236 23.9132 19.0236C23.7792 19.0236 23.6707 18.9109 23.6707 18.7719V11.6001H20.0259V23.9307H23.6707V23.9293C24.1278 23.9045 24.6376 23.5572 24.8291 23.1323L27.8056 16.5205C27.808 16.5149 27.8104 16.5094 27.8136 16.5039Z" fill="white"/>
<path fill-rule="evenodd" clip-rule="evenodd" d="M14.2039 16.7147L12.0737 23.9307H9.45178L7.32034 16.7103C7.29976 16.5947 7.20195 16.5072 7.08436 16.5072C6.95184 16.5072 6.84438 16.6184 6.84438 16.7556C6.84438 16.7567 6.84439 16.7578 6.84447 16.7588L6.84438 23.9307H3.19971V11.6001H6.32806H7.25979C7.93041 11.6001 8.63317 12.1391 8.82919 12.803L10.6029 18.8116C10.6912 19.1106 10.8343 19.1103 10.9225 18.8116L12.6963 12.803C12.8925 12.1386 13.595 11.6001 14.2657 11.6001H15.1971H18.3252V23.9307H14.6805V16.7588C14.6805 16.7578 14.6805 16.7567 14.6805 16.7556C14.6805 16.6184 14.5731 16.5072 14.4406 16.5072C14.3215 16.5072 14.2227 16.597 14.2039 16.7147Z" fill="white"/>
</svg>
