<svg width="48" height="36" viewBox="0 0 48 36" fill="none" xmlns="http://www.w3.org/2000/svg">
<path d="M29.5607 24.4938H18.8627V4.57617H29.5607V24.4938Z" fill="#6C6BBD"/>
<path d="M19.5433 14.5354C19.5433 10.5006 21.3675 6.89807 24.212 4.57647C22.125 2.8793 19.5124 1.87061 16.6523 1.87061C9.89638 1.87061 4.42358 7.5385 4.42358 14.5354C4.42358 21.5322 9.89638 27.2 16.6523 27.2C19.5124 27.2 22.125 26.1913 24.212 24.4942C21.3675 22.1726 19.5433 18.5861 19.5433 14.5354Z" fill="#D32011"/>
<path d="M44 14.5349C44 21.5317 38.5279 27.1995 31.7719 27.1995C28.9116 27.1995 26.2991 26.1908 24.2117 24.4937C27.0566 22.1721 28.8809 18.5696 28.8809 14.5349C28.8809 10.5001 27.0566 6.89758 24.2117 4.57598C26.2991 2.87881 28.9116 1.87012 31.7719 1.87012C38.5279 1.87012 44 7.53802 44 14.5349Z" fill="#0099DF"/>
<path d="M33.179 30.1297C33.3179 30.1297 33.519 30.1617 33.6893 30.2258L33.4729 30.9143C33.3179 30.8502 33.179 30.8342 33.024 30.8342C32.5604 30.8342 32.3286 31.1384 32.3286 31.6988V33.5721H31.6333V30.2098H32.3286V30.6261C32.5143 30.3219 32.7768 30.1297 33.179 30.1297ZM30.5665 30.8823H29.4069V32.4033C29.4069 32.7395 29.5151 32.9637 29.8704 32.9637C30.0562 32.9637 30.2879 32.8996 30.489 32.7716L30.6901 33.396C30.4737 33.5561 30.1176 33.6522 29.809 33.6522C28.974 33.6522 28.6801 33.1878 28.6801 32.4033V30.8663H28.0155V30.2098H28.6801V29.1851H29.3915V30.2098H30.5504V30.8823H30.5665ZM21.5223 31.6028C21.5995 31.1225 21.8778 30.7862 22.388 30.7862C22.8363 30.7862 23.13 31.0744 23.2074 31.6028H21.5223ZM23.9494 31.891C23.9494 30.8502 23.3156 30.1297 22.4035 30.1297C21.445 30.1297 20.7802 30.8502 20.7802 31.891C20.7802 32.9637 21.4758 33.6522 22.4498 33.6522C22.9445 33.6522 23.3929 33.5241 23.7794 33.1878L23.4392 32.6434C23.1609 32.8676 22.8209 32.9957 22.4962 32.9957C22.0479 32.9957 21.6305 32.7716 21.5223 32.1792H23.9339C23.9494 32.0831 23.9494 31.987 23.9494 31.891ZM27.0569 31.0744C26.8558 30.9463 26.4537 30.7862 26.0523 30.7862C25.6655 30.7862 25.4337 30.9303 25.4337 31.1864C25.4337 31.4107 25.6809 31.4746 25.9901 31.5227L26.3301 31.5707C27.0415 31.6828 27.459 31.987 27.459 32.5795C27.459 33.2199 26.918 33.6842 25.9748 33.6842C25.4491 33.6842 24.9541 33.5401 24.568 33.2519L24.908 32.6755C25.1398 32.8676 25.4951 33.0277 25.9901 33.0277C26.4691 33.0277 26.7323 32.8836 26.7323 32.6114C26.7323 32.4193 26.5466 32.3233 26.1605 32.2592L25.8198 32.2111C25.0937 32.0991 24.6916 31.7629 24.6916 31.2185C24.6916 30.546 25.2173 30.1458 26.0362 30.1458C26.5466 30.1458 27.0262 30.2578 27.3662 30.498L27.0569 31.0744ZM35.7607 30.8182C35.6218 30.8182 35.4822 30.8502 35.3586 30.8982C35.235 30.9463 35.1268 31.0264 35.034 31.1225C34.9411 31.2185 34.8643 31.3305 34.8175 31.4587C34.7715 31.5867 34.74 31.7308 34.74 31.891C34.74 32.0511 34.7715 32.1952 34.8175 32.3233C34.8643 32.4513 34.9411 32.5634 35.034 32.6595C35.1268 32.7555 35.235 32.8356 35.3586 32.8836C35.4822 32.9317 35.6218 32.9637 35.7607 32.9637C35.8997 32.9637 36.0393 32.9317 36.1629 32.8836C36.2864 32.8356 36.3947 32.7555 36.4875 32.6595C36.5804 32.5634 36.6572 32.4513 36.7039 32.3233C36.75 32.1952 36.7807 32.0511 36.7807 31.891C36.7807 31.7308 36.75 31.5867 36.7039 31.4587C36.6572 31.3305 36.5804 31.2185 36.4875 31.1225C36.3947 31.0264 36.2864 30.9463 36.1629 30.8982C36.0547 30.8502 35.915 30.8182 35.7607 30.8182ZM35.7607 30.1297C36.0079 30.1297 36.2397 30.1778 36.4561 30.2738C36.6725 30.3699 36.8582 30.482 37.0132 30.6421C37.1675 30.8022 37.2911 30.9943 37.3839 31.2025C37.4768 31.4266 37.5229 31.6508 37.5229 31.907C37.5229 32.1631 37.4768 32.4033 37.3839 32.6114C37.2911 32.8196 37.1675 33.0117 37.0132 33.1718C36.8582 33.3319 36.6725 33.46 36.4561 33.5401C36.2397 33.6362 36.0079 33.6681 35.7607 33.6681C35.5136 33.6681 35.2811 33.6201 35.0647 33.5401C34.8483 33.444 34.6633 33.3319 34.5083 33.1718C34.354 33.0117 34.2304 32.8196 34.1375 32.6114C34.0447 32.3873 33.9986 32.1631 33.9986 31.907C33.9986 31.6508 34.0447 31.4106 34.1375 31.2025C34.2304 30.9943 34.354 30.8022 34.5083 30.6421C34.6633 30.482 34.8483 30.3539 35.0647 30.2738C35.2811 30.1617 35.5136 30.1297 35.7607 30.1297ZM17.3944 31.891C17.3944 31.2985 17.7655 30.8182 18.3839 30.8182C18.9713 30.8182 19.3578 31.2825 19.3578 31.891C19.3578 32.4993 18.9559 32.9637 18.3839 32.9637C17.7809 32.9637 17.3944 32.4834 17.3944 31.891ZM20.0381 31.891V30.2098H19.3269V30.6261C19.0951 30.3219 18.7704 30.1297 18.3066 30.1297C17.3944 30.1297 16.6833 30.8663 16.6833 31.891C16.6833 32.9157 17.3944 33.6522 18.3066 33.6522C18.7704 33.6522 19.1105 33.4601 19.3269 33.1558V33.5721H20.0381V31.891ZM16.0494 33.5721V31.4587C16.0494 30.6581 15.5547 30.1297 14.7663 30.1297C14.3489 30.1297 13.916 30.2578 13.6223 30.7222C13.4058 30.3539 13.0503 30.1297 12.5556 30.1297C12.2154 30.1297 11.8754 30.2418 11.5971 30.6261V30.2098H10.8859V33.5721H11.5971V31.7148C11.5971 31.1384 11.9062 30.8182 12.3855 30.8182C12.8493 30.8182 13.0966 31.1384 13.0966 31.6988V33.5721H13.8078V31.7148C13.8078 31.1384 14.1325 30.8182 14.5963 30.8182C15.0755 30.8182 15.3074 31.1384 15.3074 31.6988V33.5721H16.0494Z" fill="white"/>
</svg>
