<svg width="48" height="36" viewBox="0 0 48 36" fill="none" xmlns="http://www.w3.org/2000/svg">
<path fill-rule="evenodd" clip-rule="evenodd" d="M14.3113 11.9206C14.7542 11.3894 15.0532 10.651 14.9719 9.915C14.3318 9.9406 13.5578 10.3382 13.1019 10.8678C12.6891 11.3374 12.3318 12.0894 12.4305 12.811C13.1423 12.8654 13.8683 12.4518 14.3113 11.9206ZM16.1504 16.591C16.1362 14.999 17.4628 14.2334 17.5242 14.1958C16.7758 13.119 15.6152 12.9694 15.2018 12.9526C14.2126 12.8558 13.2697 13.5294 12.7698 13.5294C12.2679 13.5294 11.4959 12.9678 10.6739 12.9854C9.59576 13.0006 8.60176 13.6054 8.0468 14.5598C6.9296 16.487 7.76312 19.3326 8.85384 20.8918C9.38792 21.655 10.0228 22.5118 10.8595 22.4814C11.6649 22.4502 11.967 21.9654 12.9402 21.9654C13.9112 21.9646 14.1859 22.4798 15.034 22.4654C15.8994 22.447 16.4487 21.6862 16.9794 20.9198C17.5895 20.0358 17.8424 19.1774 17.8552 19.135C17.8378 19.123 16.1696 18.4934 16.1504 16.591ZM26.4543 11.9198C26.1317 11.6126 25.7156 11.3726 25.2176 11.2078C24.724 11.0454 24.1312 10.963 23.4558 10.963C23.0233 10.9614 22.591 10.983 22.1609 11.0294C21.8023 11.0694 21.4449 11.119 21.0892 11.1782L20.9849 11.1966V22.3846H22.0174V17.671C22.3651 17.7302 22.7632 17.7614 23.2023 17.7614C23.7867 17.7614 24.3342 17.687 24.8297 17.5422C25.3062 17.4078 25.7503 17.179 26.1342 16.8686C26.5041 16.563 26.8015 16.1806 27.0056 15.7486C27.2168 15.3054 27.3242 14.7838 27.3242 14.1974C27.3242 13.7126 27.2468 13.2758 27.0958 12.9006C26.9498 12.535 26.7316 12.2014 26.4543 11.9198ZM25.5055 16.1934C24.9756 16.6334 24.2254 16.8558 23.2734 16.8558C23.0116 16.8558 22.7639 16.8446 22.5366 16.8238C22.3618 16.8078 22.1884 16.779 22.018 16.7374V11.9798C22.1544 11.955 22.3234 11.9318 22.5218 11.9102C22.7734 11.8838 23.0762 11.8702 23.4232 11.8702C23.8216 11.867 24.2186 11.9174 24.603 12.0222C24.9305 12.111 25.2382 12.2606 25.5102 12.4614C25.7578 12.6518 25.9525 12.8982 26.0875 13.1958C26.2238 13.4974 26.2924 13.8574 26.2924 14.2646C26.2918 15.1102 26.0267 15.759 25.5055 16.1934ZM33.4961 21.3374C33.4846 21.0206 33.4801 20.703 33.4801 20.3862V17.2758C33.4801 16.907 33.4422 16.531 33.3686 16.1574C33.2978 15.7854 33.1522 15.4318 32.941 15.1166C32.7311 14.8046 32.4372 14.5478 32.0697 14.351C31.7023 14.1558 31.2248 14.0566 30.6494 14.0566C30.2293 14.0566 29.8191 14.111 29.4318 14.2174C29.0249 14.3334 28.6403 14.5142 28.2928 14.7534L28.2089 14.811L28.5578 15.6182L28.684 15.5342C28.9593 15.3518 29.2605 15.2094 29.5777 15.1134C29.8982 15.015 30.2321 14.9638 30.5679 14.963C30.9982 14.963 31.342 15.0406 31.587 15.1926C31.8361 15.3462 32.0236 15.5366 32.1446 15.7598C32.2708 15.9894 32.3533 16.2342 32.3898 16.4878C32.4289 16.7518 32.4474 16.9886 32.4474 17.191V17.2806C30.9169 17.2742 29.7217 17.5262 28.9279 18.0318C28.095 18.563 27.6726 19.3182 27.6726 20.2774C27.6726 20.5534 27.7225 20.8318 27.8211 21.1062C27.9208 21.3846 28.0726 21.6334 28.271 21.8462C28.4709 22.0614 28.7288 22.2366 29.0374 22.3678C29.3446 22.4998 29.7063 22.567 30.1102 22.567C30.6821 22.5758 31.245 22.4238 31.7324 22.1278C31.945 21.9982 32.1338 21.8502 32.2952 21.691C32.3638 21.623 32.4295 21.5518 32.4917 21.4774H32.5314L32.6262 22.3854H33.6214L33.5939 22.2398C33.5393 21.9414 33.5066 21.6398 33.4961 21.3374ZM32.4474 19.7438C32.4474 19.8526 32.4212 20.0022 32.3713 20.1814C32.3044 20.3758 32.2109 20.559 32.0934 20.7278C31.832 21.107 31.452 21.3902 31.0123 21.5358C30.7453 21.6222 30.4654 21.6646 30.1845 21.6606C29.9991 21.6606 29.8153 21.6294 29.6404 21.5686C29.4706 21.5102 29.3148 21.4182 29.1827 21.2974C29.0441 21.1678 28.9347 21.011 28.8613 20.8374C28.78 20.6518 28.739 20.4214 28.739 20.1542C28.739 19.7166 28.8581 19.3614 29.0918 19.1014C29.3434 18.8254 29.6593 18.6134 30.0124 18.4846C30.4122 18.3358 30.8306 18.2414 31.2561 18.2038C31.6521 18.1662 32.0497 18.1486 32.4474 18.1526V19.7438ZM40.5038 14.2382L38.5769 19.4214C38.4566 19.7342 38.3445 20.0494 38.2421 20.3566C38.1922 20.5094 38.1447 20.655 38.098 20.7926H38.0616C38.0135 20.6414 37.9643 20.4902 37.9142 20.3398C37.8146 20.0358 37.707 19.7374 37.5968 19.4534L35.5362 14.2382H34.4346L37.3823 21.7358C37.4598 21.9166 37.4713 21.999 37.4713 22.0326C37.4713 22.043 37.4676 22.1046 37.3811 22.3326C37.2201 22.739 37.0101 23.1254 36.7558 23.4822C36.5194 23.8006 36.3031 24.059 36.1103 24.2494C35.8863 24.471 35.6552 24.6526 35.4203 24.7902C35.1803 24.9302 34.9614 25.0438 34.7673 25.1294L34.6561 25.1782L35.0151 26.0414L35.1291 25.9998C35.2224 25.9646 35.398 25.8854 35.6642 25.7574C35.933 25.6262 36.2308 25.4182 36.5482 25.1374C36.8297 24.8918 37.0795 24.6134 37.2922 24.3078C37.5097 23.999 37.7274 23.6366 37.9413 23.2334C38.1524 22.831 38.3637 22.3742 38.5698 21.8734C38.776 21.3694 38.9974 20.807 39.2261 20.2022L41.6067 14.2382H40.5038ZM43.7014 3.43317L44.1892 3.43364C44.323 3.43436 44.4567 3.4362 44.5911 3.4394C44.835 3.4458 45.1218 3.45901 45.3978 3.50845C45.6533 3.55405 45.8696 3.62461 46.0789 3.72941C46.502 3.94141 46.8458 4.2822 47.0602 4.7006C47.1665 4.9078 47.237 5.12141 47.283 5.37501C47.3322 5.64541 47.3464 5.92941 47.3522 6.17261C47.3559 6.30381 47.3579 6.4366 47.3586 6.5702C47.3598 6.7302 47.3598 6.89181 47.3598 7.05261V28.947C47.3598 29.1078 47.3598 29.2686 47.3586 29.4318C47.3581 29.5638 47.3558 29.6958 47.3522 29.827C47.3458 30.0702 47.3322 30.3542 47.283 30.6262C47.2431 30.8606 47.168 31.087 47.0602 31.299C46.8446 31.7174 46.5005 32.0574 46.0776 32.271C45.8634 32.3774 45.6343 32.4518 45.3978 32.4918C45.1315 32.5342 44.8626 32.5566 44.5931 32.5598C44.4586 32.563 44.3242 32.5654 44.1878 32.5654C44.0258 32.5662 43.8627 32.5662 43.7007 32.5662H4.29279C4.13208 32.5662 3.97153 32.5662 3.80897 32.5654C3.67454 32.5654 3.5401 32.563 3.40888 32.5598C3.13862 32.5566 2.86898 32.5334 2.60226 32.4918C2.36488 32.4526 2.13502 32.3774 1.92038 32.2702C1.71005 32.1646 1.51815 32.0262 1.35206 31.8606C1.1852 31.6966 1.04616 31.5062 0.93968 31.299C0.831368 31.0862 0.756232 30.859 0.716288 30.6246C0.6728 30.3614 0.649448 30.0942 0.646528 29.827C0.643304 29.695 0.641464 29.563 0.640696 29.431L0.640232 29.0446V6.9558L0.640696 6.5702C0.641464 6.4374 0.643304 6.30541 0.646528 6.17261C0.652984 5.93101 0.666352 5.64701 0.716288 5.37341C0.755928 5.13901 0.831208 4.9126 0.93968 4.7006C1.15448 4.2822 1.49818 3.94221 1.92116 3.72941C2.13534 3.62221 2.36472 3.54829 2.60149 3.50917C2.86852 3.46605 3.13832 3.44293 3.40888 3.44005C3.54255 3.43685 3.67638 3.435 3.80958 3.43444L4.29863 3.43317H43.7014ZM43.7014 2.7998H4.29863L3.80636 2.80045C3.66808 2.80101 3.5298 2.803 3.39152 2.80676C3.08915 2.81076 2.78739 2.83709 2.48886 2.88541C2.19034 2.93613 1.90103 3.03037 1.63046 3.16525C1.08795 3.43973 0.646528 3.8766 0.36936 4.4134C0.232768 4.6806 0.137208 4.96701 0.086352 5.26301C0.037032 5.55821 0.010296 5.8566 0.00645599 6.1558C0.00322399 6.2918 0.00123207 6.42861 0.000616074 6.56541L0 7.05261V28.947L0.000616074 29.435C0.00123207 29.5718 0.00322406 29.7086 0.00706406 29.8446C0.0153601 30.1422 0.033184 30.4422 0.087112 30.7366C0.140888 31.0366 0.229696 31.3142 0.36936 31.5862C0.645304 32.1238 1.08734 32.5614 1.63108 32.8342C1.90564 32.9734 2.18681 33.0606 2.48886 33.1142C2.78662 33.167 3.09007 33.1846 3.39152 33.1926C3.5298 33.1966 3.66746 33.1982 3.80636 33.1982C3.9703 33.1998 4.1347 33.1998 4.29863 33.1998H43.7014C43.8653 33.1998 44.0297 33.1998 44.1937 33.1982C44.3319 33.1982 44.4702 33.1958 44.6085 33.1926C44.9093 33.1846 45.2127 33.167 45.5111 33.1142C45.8095 33.0638 46.0985 32.9694 46.3688 32.8342C46.9126 32.5614 47.3549 32.1246 47.6306 31.5862C47.7708 31.3142 47.8591 31.0366 47.9129 30.7366C47.9666 30.4422 47.984 30.1422 47.9923 29.8446C47.9962 29.7078 47.998 29.571 47.9986 29.435C48 29.2718 48 29.1102 48 28.947V7.05261C48 6.88941 48 6.72781 47.9986 6.56461C47.9982 6.42781 47.996 6.29181 47.9923 6.155C47.9886 5.8558 47.9621 5.55741 47.9129 5.26221C47.8623 4.96701 47.767 4.6806 47.6306 4.4126C47.3539 3.875 46.9122 3.43821 46.3688 3.16461C46.0985 3.02981 45.8095 2.93541 45.5111 2.88461C45.2126 2.83645 44.9109 2.81013 44.6085 2.80621C44.4696 2.80221 44.3311 2.801 44.1937 2.7998H43.7014Z" fill="white"/>
</svg>
