<svg width="115" height="121" viewBox="0 0 115 121" fill="none" xmlns="http://www.w3.org/2000/svg">
<g filter="url(#filter0_d_8805_64626)">
<path d="M65.9568 53.6514C70.7235 56.8162 70.7235 63.8163 65.9568 66.981L31.4236 89.9088C26.1061 93.4392 18.9986 89.6267 18.9986 83.244L18.9986 37.3885C18.9986 31.0058 26.1061 27.1932 31.4236 30.7237L65.9568 53.6514Z" fill="#ED6E1E"/>
</g>
<g filter="url(#filter1_b_8805_64626)">
<path d="M103.503 53.5424C108.495 56.6788 108.495 63.9536 103.503 67.0901L43.4061 104.851C38.0785 108.198 31.15 104.369 31.15 98.0769L31.15 22.5556C31.15 16.2635 38.0785 12.4342 43.4061 15.7817L103.503 53.5424Z" fill="white" fill-opacity="0.85"/>
</g>
<defs>
<filter id="filter0_d_8805_64626" x="6.99854" y="19.375" width="74.5332" height="85.8824" filterUnits="userSpaceOnUse" color-interpolation-filters="sRGB">
<feFlood flood-opacity="0" result="BackgroundImageFix"/>
<feColorMatrix in="SourceAlpha" type="matrix" values="0 0 0 0 0 0 0 0 0 0 0 0 0 0 0 0 0 0 127 0" result="hardAlpha"/>
<feMorphology radius="2" operator="dilate" in="SourceAlpha" result="effect1_dropShadow_8805_64626"/>
<feOffset dy="2"/>
<feGaussianBlur stdDeviation="5"/>
<feColorMatrix type="matrix" values="0 0 0 0 0 0 0 0 0 0 0 0 0 0 0 0 0 0 0.1 0"/>
<feBlend mode="normal" in2="BackgroundImageFix" result="effect1_dropShadow_8805_64626"/>
<feBlend mode="normal" in="SourceGraphic" in2="effect1_dropShadow_8805_64626" result="shape"/>
</filter>
<filter id="filter1_b_8805_64626" x="19.1499" y="2.54272" width="100.097" height="115.547" filterUnits="userSpaceOnUse" color-interpolation-filters="sRGB">
<feFlood flood-opacity="0" result="BackgroundImageFix"/>
<feGaussianBlur in="BackgroundImage" stdDeviation="6"/>
<feComposite in2="SourceAlpha" operator="in" result="effect1_backgroundBlur_8805_64626"/>
<feBlend mode="normal" in="SourceGraphic" in2="effect1_backgroundBlur_8805_64626" result="shape"/>
</filter>
</defs>
</svg>
